<svg width="1319" height="400" viewBox="0 0 1319 400" fill="none" xmlns="http://www.w3.org/2000/svg">
<path d="M200 0C310.457 0 400 89.5429 400 200C400 310.457 310.457 400 200 400C89.5429 400 0 310.457 0 200C0 89.5429 89.5429 0 200 0ZM226.924 60.5119C212.284 53.9899 199.73 55.7213 185.676 62.9115C184.704 63.4092 183.73 63.9051 182.755 64.3987C170.163 70.7656 157.577 77.1821 145.175 83.9009C139.838 86.7952 134.443 89.5614 129.014 92.2843C125.091 94.2499 121.172 96.2203 117.254 98.1935C116.328 98.6596 115.402 99.1256 114.477 99.5917C112.067 100.803 109.656 102.015 107.256 103.247C106.55 103.61 105.842 103.975 105.135 104.337C103.282 105.266 101.448 106.208 99.6399 107.219C96.9136 108.979 94.9997 110.755 94.3201 113.938C94.3511 114.519 94.3807 115.083 94.411 115.647C94.4654 117.363 94.4654 117.363 94.7022 119C96.17 123.628 96.1701 123.628 104.772 128.205C106.137 128.89 107.365 129.593 108.661 130.417C111.452 137.748 111.452 137.748 111.06 145.875C111.057 146.966 111.053 148.057 111.053 149.148C111.054 151.21 111.053 153.272 111.049 155.334C111.045 157.583 111.043 159.831 111.042 162.079C111.041 165.979 111.039 169.88 111.033 173.781C111.027 179.469 111.022 185.157 111.019 190.844C111.015 200.071 111.009 209.298 111.001 218.525C111.001 219.094 111 219.648 111 220.2C110.996 224.126 110.993 228.052 110.989 231.978C110.985 236.475 110.981 240.973 110.977 245.47C110.977 246.041 110.976 246.596 110.976 247.15C110.968 256.416 110.961 265.681 110.957 274.947C110.954 280.651 110.951 286.356 110.944 292.061C110.939 296.001 110.935 299.941 110.934 303.882C110.933 306.156 110.932 308.43 110.929 310.704C110.925 312.812 110.921 314.919 110.921 317.026C110.922 317.794 110.922 318.562 110.921 319.33C110.919 320.063 110.918 320.775 110.915 321.487C110.916 322.486 110.917 322.486 110.918 323.465C110.915 326.919 111.276 329.977 112.774 333.142C113.046 333.678 113.046 333.678 113.314 334.204C114.138 335.871 115.007 337.346 116.222 338.77C122.331 343.623 130.756 343.588 138.221 343.535C139.21 343.527 140.199 343.523 141.188 343.522C143.269 343.521 145.35 343.517 147.432 343.506C150.117 343.491 152.803 343.477 155.488 343.474C158.107 343.471 160.726 343.466 163.344 343.457C163.853 343.456 164.347 343.455 164.841 343.453C166.277 343.45 167.714 343.446 169.15 343.438C169.601 343.435 170.037 343.431 170.474 343.429C177.109 343.418 183.024 341.997 188.345 337.913C193.347 332.932 193.347 332.932 193.334 315.686C193.333 314.33 193.336 312.974 193.343 311.618C193.367 308.048 193.385 304.477 193.39 300.906C193.4 295.071 193.428 289.234 193.458 283.398C193.469 281.346 193.477 279.293 193.482 277.241C193.484 275.948 193.488 274.654 193.492 273.361C193.494 272.748 193.496 272.152 193.498 271.557C193.497 270.978 193.497 270.416 193.497 269.854C193.499 269.323 193.502 268.806 193.504 268.29C193.51 264.867 194.247 262.703 196.488 259.996C199.937 257.8 202.689 257.438 206.766 257.381C207.853 257.382 207.853 257.382 208.918 257.385C211.234 257.359 213.55 257.334 215.866 257.327C218.253 257.32 220.64 257.303 223.027 257.283C224.552 257.268 226.078 257.255 227.603 257.242C238.86 257.204 250.865 256.368 259.489 248.432C264.343 243.502 264.814 238.264 264.759 231.022C264.754 230.234 264.751 229.447 264.751 228.66C264.752 227.012 264.744 223.724 264.744 223.693C264.744 223.693 264.72 219.418 264.724 217.281C264.726 215.602 264.726 213.924 264.722 212.244C264.722 212.244 264.717 210.642 264.715 209.84C264.715 209.066 264.717 208.292 264.717 207.517C264.711 206.783 264.706 206.07 264.7 205.358C264.686 202.255 264.396 200.01 262.213 197.667C258.261 195.324 258.261 195.324 246.132 195.391C244.448 195.406 242.764 195.42 241.08 195.427C237.473 195.439 233.865 195.457 230.257 195.48C225.993 195.507 221.729 195.535 217.464 195.55C215.747 195.555 214.03 195.563 212.313 195.577C211.231 195.587 210.149 195.593 209.067 195.597C208.55 195.599 208.048 195.601 207.546 195.603C203.422 195.655 199.484 195.601 195.979 193.208C193.376 187.159 193.376 187.159 193.493 180.412C193.506 179.743 193.519 179.093 193.532 178.443C193.554 177.04 193.576 175.639 193.599 174.237C193.645 172.046 193.69 169.855 193.718 167.664C193.736 166.224 193.757 164.783 193.783 163.343C193.796 162.642 193.81 161.961 193.823 161.282C193.831 160.605 193.838 159.948 193.846 159.291C193.861 158.662 193.877 158.052 193.892 157.442C193.923 155.785 194.012 154.689 194.761 153.202C197.765 150.337 200.969 149.566 205.073 149.511C205.935 149.517 205.935 149.517 206.781 149.523C208.702 149.507 210.622 149.494 212.543 149.495C213.916 149.496 215.288 149.493 216.661 149.486C220.272 149.462 223.883 149.446 227.494 149.44C233.387 149.431 239.28 149.404 245.172 149.374C247.246 149.364 249.32 149.355 251.393 149.351C252.702 149.349 254.011 149.345 255.32 149.341C256.246 149.338 256.247 149.338 257.156 149.335C264.898 149.339 272.07 148.337 279.19 145.115C281.75 143.908 284.338 142.797 286.956 141.717C287.479 141.502 287.988 141.293 288.496 141.084C290.204 140.381 291.913 139.679 293.621 138.979C293.659 140.413 293.634 141.758 293.409 143.177C293.305 143.654 293.206 144.118 293.106 144.58C292.99 145.126 292.878 145.657 292.765 146.187C292.509 147.362 292.257 148.537 292.008 149.713C291.603 151.618 291.195 153.522 290.786 155.427C289.383 161.943 287.863 168.437 287.097 175.062C286.894 177.021 286.668 178.839 286.169 180.746C284.969 184.583 283.734 188.892 285.456 192.746C288.088 195.037 288.088 195.038 297.635 195.133C298.674 195.133 298.675 195.133 299.693 195.135C302.344 195.189 304.943 195.204 307.581 194.92C310.445 194.152 313.257 193.278 315.142 190.925C315.92 186.182 315.919 186.182 313.812 176.383C313.519 175.054 313.226 173.724 312.943 172.392C312.335 169.519 311.72 166.649 311.098 163.779C310.364 160.392 309.632 157.005 308.913 153.616C308.624 152.251 308.333 150.886 308.034 149.523C306.878 144.269 305.214 138.53 307 133.271C308.603 130.732 310.297 129.831 313.018 128.745C316.943 127.227 320.654 125.784 323.665 122.789C326.325 119.618 326.573 116.702 326.193 112.722C323.567 107.566 323.567 107.566 305.254 99.306C301.08 97.4485 296.954 95.5532 292.922 93.4155C290.122 91.9284 287.307 90.4799 284.46 89.0816C283.767 88.7429 283.767 88.7429 283.089 88.4117C281.221 87.4988 279.351 86.588 277.482 85.6778C271.416 82.727 265.378 79.7384 259.393 76.632C255.179 74.4427 250.949 72.2823 246.71 70.1384C245.758 69.6578 244.807 69.1766 243.855 68.6956C238.708 66.0761 233.561 63.4695 228.282 61.1116C227.821 60.908 227.372 60.7096 226.924 60.5119Z" fill="#2962FF"/>
<path d="M568.67 22.5312L506.902 378H432.684L494.207 22.5312H568.67ZM660.467 172.678L649.725 233.713H512.029L522.771 172.678H660.467ZM699.529 22.5312L689.031 83.8105H537.908L548.65 22.5312H699.529ZM782.811 3L717.869 378H646.336L711.277 3H782.811ZM883.426 310.617L917.605 113.84H989.383L943.484 378H876.834L883.426 310.617ZM898.562 259.348L916.385 258.859C915.083 272.694 912.397 287.017 908.328 301.828C904.422 316.477 898.725 330.067 891.238 342.6C883.751 354.969 874.148 364.979 862.43 372.629C850.711 380.116 836.388 383.615 819.461 383.127C805.464 382.801 793.989 379.79 785.037 374.094C776.085 368.397 769.168 360.91 764.285 351.633C759.402 342.193 756.229 331.695 754.764 320.139C753.462 308.42 753.38 296.62 754.52 284.738L783.084 113.84H854.373L825.809 285.471C825.32 289.54 825.158 293.853 825.32 298.41C825.483 302.805 826.134 306.955 827.273 310.861C828.576 314.605 830.691 317.697 833.621 320.139C836.551 322.58 840.701 323.882 846.072 324.045C858.442 324.696 868.208 321.685 875.369 315.012C882.531 308.339 887.82 299.956 891.238 289.865C894.819 279.611 897.26 269.439 898.562 259.348ZM1063.39 113.84L1082.67 190.256L1127.35 113.84H1205.23L1121.49 246.164L1163.73 378H1091.46L1069.49 296.701L1021.88 378H943.27L1031.16 239.572L990.633 113.84H1063.39ZM1281.43 113.84L1235.78 378H1164.25L1210.14 113.84H1281.43ZM1218.2 46.7012C1218.04 35.3079 1221.7 26.0306 1229.19 18.8691C1236.84 11.5449 1246.28 7.80143 1257.51 7.63867C1268.25 7.47591 1277.36 10.8125 1284.85 17.6484C1292.5 24.3216 1296.33 33.1921 1296.33 44.2598C1296.65 55.4902 1292.99 64.7676 1285.34 72.0918C1277.85 79.2533 1268.49 82.9154 1257.26 83.0781C1246.52 83.4036 1237.41 80.2298 1229.92 73.5566C1222.43 66.7207 1218.53 57.7689 1218.2 46.7012Z" fill="white"/>
</svg>
