<svg width="1376" height="457" viewBox="0 0 1376 457" fill="none" xmlns="http://www.w3.org/2000/svg">
<path d="M228.5 0C354.697 0 457 102.303 457 228.5C457 354.697 354.697 457 228.5 457C102.303 457 0 354.697 0 228.5C0 102.303 102.303 0 228.5 0ZM259.261 69.1349C242.535 61.6835 228.192 63.6616 212.135 71.8763C211.025 72.445 209.912 73.0115 208.798 73.5755C194.411 80.8497 180.031 88.1806 165.862 95.8567C159.765 99.1635 153.601 102.324 147.399 105.435C142.917 107.681 138.439 109.932 133.962 112.186C132.905 112.719 131.847 113.251 130.79 113.784C128.036 115.168 125.282 116.552 122.54 117.959C121.733 118.375 120.925 118.791 120.117 119.205C118 120.267 115.904 121.343 113.839 122.498C110.724 124.509 108.537 126.537 107.761 130.174C107.796 130.838 107.83 131.482 107.865 132.126C107.927 134.087 107.927 134.087 108.197 135.958C109.874 141.244 109.874 141.245 119.702 146.474C121.262 147.257 122.665 148.06 124.145 149.002C127.334 157.377 127.334 157.377 126.886 166.662C126.882 167.909 126.878 169.155 126.878 170.402C126.879 172.758 126.878 175.114 126.874 177.469C126.869 180.038 126.867 182.607 126.866 185.175C126.864 189.631 126.862 194.088 126.856 198.545C126.848 205.043 126.842 211.541 126.839 218.039C126.834 228.581 126.828 239.123 126.819 249.664C126.819 250.315 126.817 250.947 126.817 251.579C126.813 256.064 126.809 260.55 126.805 265.035C126.801 270.173 126.796 275.311 126.791 280.449C126.791 281.102 126.79 281.735 126.79 282.369C126.781 292.955 126.773 303.541 126.768 314.127C126.765 320.644 126.762 327.162 126.753 333.679C126.748 338.181 126.743 342.683 126.742 347.186C126.741 349.784 126.74 352.382 126.736 354.98C126.731 357.387 126.727 359.795 126.727 362.202C126.728 363.08 126.728 363.958 126.727 364.835C126.725 365.672 126.724 366.486 126.72 367.299C126.722 368.44 126.723 368.44 126.724 369.559C126.72 373.505 127.133 376.999 128.844 380.615C129.156 381.227 129.156 381.228 129.462 381.828C130.403 383.733 131.396 385.418 132.784 387.044C139.763 392.59 149.389 392.549 157.918 392.488C159.047 392.48 160.177 392.475 161.307 392.473C163.685 392.473 166.062 392.469 168.441 392.456C171.509 392.438 174.577 392.422 177.646 392.419C180.637 392.416 183.629 392.41 186.62 392.4C187.202 392.399 187.766 392.397 188.331 392.395C189.972 392.392 191.614 392.387 193.254 392.377C193.769 392.374 194.267 392.37 194.766 392.367C202.347 392.355 209.105 390.731 215.184 386.066C220.899 380.375 220.899 380.375 220.884 360.671C220.883 359.123 220.887 357.573 220.895 356.023C220.922 351.944 220.942 347.865 220.948 343.785C220.959 337.118 220.991 330.45 221.026 323.783C221.039 321.438 221.048 319.092 221.053 316.747C221.055 315.27 221.06 313.792 221.065 312.315C221.067 311.614 221.069 310.934 221.072 310.254C221.071 309.593 221.07 308.95 221.07 308.308C221.072 307.701 221.076 307.111 221.078 306.521C221.085 302.61 221.927 300.138 224.488 297.045C228.428 294.537 231.572 294.123 236.23 294.058C237.472 294.059 237.472 294.059 238.689 294.062C241.335 294.033 243.981 294.004 246.627 293.997C249.354 293.989 252.082 293.969 254.808 293.945C256.551 293.929 258.294 293.914 260.037 293.899C272.897 293.856 286.613 292.9 296.466 283.833C302.012 278.201 302.55 272.216 302.488 263.942C302.481 263.042 302.478 262.143 302.478 261.244C302.48 259.361 302.47 255.605 302.47 255.569C302.47 255.569 302.443 250.685 302.447 248.244C302.45 246.325 302.45 244.408 302.445 242.489C302.445 242.489 302.439 240.658 302.436 239.743C302.437 238.858 302.439 237.974 302.439 237.089C302.433 236.249 302.426 235.435 302.42 234.621C302.404 231.077 302.072 228.512 299.579 225.835C295.063 223.158 295.063 223.158 281.205 223.235C279.281 223.251 277.358 223.268 275.434 223.276C271.312 223.289 267.191 223.31 263.069 223.336C258.197 223.367 253.325 223.398 248.453 223.416C246.491 223.422 244.53 223.431 242.568 223.447C241.331 223.458 240.096 223.465 238.859 223.47C238.268 223.472 237.695 223.475 237.122 223.476C232.409 223.536 227.91 223.474 223.906 220.74C220.932 213.829 220.932 213.829 221.065 206.121C221.081 205.356 221.095 204.613 221.11 203.871C221.135 202.269 221.16 200.667 221.187 199.066C221.24 196.563 221.29 194.06 221.323 191.556C221.343 189.911 221.367 188.264 221.397 186.619C221.412 185.818 221.428 185.041 221.443 184.265C221.452 183.491 221.46 182.74 221.469 181.99C221.486 181.272 221.504 180.575 221.522 179.878C221.557 177.985 221.659 176.732 222.514 175.033C225.946 171.76 229.607 170.879 234.296 170.817C235.281 170.823 235.281 170.823 236.247 170.83C238.442 170.812 240.635 170.797 242.831 170.798C244.399 170.799 245.967 170.796 247.535 170.788C251.661 170.761 255.786 170.742 259.912 170.736C266.644 170.725 273.377 170.694 280.11 170.66C282.479 170.648 284.848 170.638 287.216 170.633C288.712 170.631 290.208 170.627 291.703 170.622C292.762 170.619 292.762 170.619 293.801 170.615C302.646 170.62 310.84 169.475 318.974 165.794C321.899 164.415 324.856 163.145 327.847 161.912C328.445 161.666 329.026 161.427 329.606 161.189C331.558 160.386 333.51 159.583 335.462 158.784C335.505 160.422 335.477 161.958 335.219 163.58C335.101 164.125 334.987 164.655 334.873 165.183C334.741 165.807 334.613 166.413 334.484 167.019C334.192 168.361 333.903 169.704 333.619 171.047C333.156 173.223 332.691 175.399 332.223 177.575C330.62 185.02 328.883 192.439 328.008 200.008C327.777 202.246 327.518 204.323 326.948 206.503C325.577 210.886 324.166 215.809 326.134 220.213C329.141 222.83 329.141 222.83 340.048 222.939C341.235 222.94 341.236 222.94 342.399 222.941C345.428 223.003 348.397 223.021 351.412 222.697C354.684 221.819 357.896 220.82 360.05 218.131C360.939 212.713 360.938 212.713 358.53 201.518C358.195 199.999 357.861 198.48 357.537 196.958C356.843 193.676 356.14 190.396 355.43 187.118C354.591 183.248 353.755 179.378 352.933 175.506C352.603 173.946 352.271 172.387 351.929 170.83C350.609 164.828 348.707 158.271 350.747 152.262C352.579 149.361 354.514 148.332 357.623 147.091C362.108 145.357 366.347 143.708 369.787 140.286C372.826 136.663 373.109 133.332 372.676 128.784C369.675 122.894 369.675 122.894 348.753 113.457C343.984 111.335 339.27 109.17 334.663 106.727C331.464 105.028 328.248 103.373 324.995 101.776C324.204 101.389 324.204 101.389 323.429 101.01C321.295 99.9674 319.159 98.9267 317.023 97.8869C310.093 94.5156 303.194 91.1011 296.357 87.5521C291.542 85.0508 286.71 82.5825 281.867 80.1331C280.779 79.5841 279.692 79.0343 278.605 78.4847C272.724 75.492 266.843 72.5139 260.812 69.82C260.285 69.5873 259.773 69.3607 259.261 69.1349Z" fill="black"/>
<path d="M625.67 51.5312L563.902 407H489.684L551.207 51.5312H625.67ZM717.467 201.678L706.725 262.713H569.029L579.771 201.678H717.467ZM756.529 51.5312L746.031 112.811H594.908L605.65 51.5312H756.529ZM839.811 32L774.869 407H703.336L768.277 32H839.811ZM940.426 339.617L974.605 142.84H1046.38L1000.48 407H933.834L940.426 339.617ZM955.562 288.348L973.385 287.859C972.083 301.694 969.397 316.017 965.328 330.828C961.422 345.477 955.725 359.067 948.238 371.6C940.751 383.969 931.148 393.979 919.43 401.629C907.711 409.116 893.388 412.615 876.461 412.127C862.464 411.801 850.989 408.79 842.037 403.094C833.085 397.397 826.168 389.91 821.285 380.633C816.402 371.193 813.229 360.695 811.764 349.139C810.462 337.42 810.38 325.62 811.52 313.738L840.084 142.84H911.373L882.809 314.471C882.32 318.54 882.158 322.853 882.32 327.41C882.483 331.805 883.134 335.955 884.273 339.861C885.576 343.605 887.691 346.697 890.621 349.139C893.551 351.58 897.701 352.882 903.072 353.045C915.442 353.696 925.208 350.685 932.369 344.012C939.531 337.339 944.82 328.956 948.238 318.865C951.819 308.611 954.26 298.439 955.562 288.348ZM1120.39 142.84L1139.67 219.256L1184.35 142.84H1262.23L1178.49 275.164L1220.73 407H1148.46L1126.49 325.701L1078.88 407H1000.27L1088.16 268.572L1047.63 142.84H1120.39ZM1338.43 142.84L1292.78 407H1221.25L1267.14 142.84H1338.43ZM1275.2 75.7012C1275.04 64.3079 1278.7 55.0306 1286.19 47.8691C1293.84 40.5449 1303.28 36.8014 1314.51 36.6387C1325.25 36.4759 1334.36 39.8125 1341.85 46.6484C1349.5 53.3216 1353.33 62.1921 1353.33 73.2598C1353.65 84.4902 1349.99 93.7676 1342.34 101.092C1334.85 108.253 1325.49 111.915 1314.26 112.078C1303.52 112.404 1294.41 109.23 1286.92 102.557C1279.43 95.7207 1275.53 86.7689 1275.2 75.7012Z" fill="black"/>
</svg>
