<svg width="398" height="503" viewBox="0 0 398 503" fill="none" xmlns="http://www.w3.org/2000/svg">
<mask id="path-1-inside-1_8_43" fill="white">
<path d="M227.984 7.10868C228.755 7.45505 229.525 7.80141 230.319 8.15827C239.395 12.289 248.244 16.8558 257.094 21.4446C258.73 22.2875 260.366 23.13 262.002 23.972C269.29 27.7276 276.561 31.5133 283.807 35.3479C294.096 40.7906 304.478 46.025 314.906 51.1946C318.121 52.7884 321.335 54.3843 324.547 55.9837C325.714 56.5646 325.714 56.5646 326.904 57.1572C331.799 59.6071 336.639 62.144 341.453 64.7493C348.386 68.4942 355.48 71.8149 362.656 75.0696C373.567 80.0837 380.697 83.3602 385.544 85.8771C396.537 91.586 402.183 106.643 394.309 116.206C389.132 121.454 382.753 123.982 376.004 126.641C367.81 129.975 363.65 138.934 364.53 147.736C365.048 152.908 366.367 158.097 367.434 163.04C367.949 165.428 368.449 167.819 368.946 170.211C370.183 176.149 371.441 182.082 372.703 188.015C373.772 193.042 374.83 198.071 375.874 203.103C376.362 205.437 376.865 207.766 377.369 210.096C378.824 216.988 379.695 221.113 380.13 224.119C381.212 231.6 377.262 239.222 370.075 241.565C367.85 242.29 365.489 242.725 363.153 242.858C359.807 243.049 356.476 243.016 353.094 242.945C351.343 242.943 351.343 242.943 349.557 242.941C349.383 242.939 349.212 242.937 349.042 242.936C334.855 242.791 325.679 231.302 329.843 217.739C330.701 214.397 331.09 211.213 331.438 207.781C332.755 196.175 335.369 184.798 337.781 173.382C338.484 170.047 339.186 166.711 339.881 163.374C340.31 161.314 340.744 159.254 341.183 157.197C341.377 156.268 341.57 155.339 341.77 154.381C341.942 153.57 342.113 152.759 342.29 151.923C342.836 148.417 339.127 146.043 335.854 147.415C335.184 147.695 334.514 147.976 333.844 148.257C332.97 148.623 332.095 148.989 331.195 149.366C326.694 151.257 322.245 153.205 317.844 155.32C305.603 160.963 293.272 162.719 279.961 162.711C278.398 162.717 278.398 162.717 276.804 162.722C274.554 162.729 272.304 162.735 270.054 162.738C266.489 162.745 262.924 162.761 259.359 162.78C249.227 162.832 239.095 162.88 228.963 162.896C222.755 162.906 216.547 162.935 210.339 162.977C207.979 162.989 205.619 162.994 203.259 162.992C199.956 162.99 196.654 163.012 193.352 163.04C191.899 163.03 191.899 163.03 190.417 163.02C186.107 163.079 182.374 163.605 178.945 165.149C174.326 167.229 171.285 171.849 171.192 176.914C171.166 177.982 171.14 179.051 171.113 180.152C171.1 181.303 171.087 182.454 171.074 183.64C171.052 184.831 171.029 186.023 171.005 187.25C170.961 189.774 170.923 192.297 170.893 194.821C170.844 198.659 170.769 202.497 170.689 206.335C170.649 208.791 170.611 211.247 170.574 213.702C170.551 214.841 170.529 215.98 170.505 217.154C170.49 218.036 170.476 218.852 170.465 219.612C170.27 233.129 181.15 243.94 194.667 243.765C195.53 243.762 196.393 243.759 197.282 243.756C199.143 243.749 201.004 243.736 202.864 243.72C205.816 243.694 208.768 243.681 211.721 243.672C219.052 243.645 226.384 243.597 233.715 243.549C239.918 243.509 246.12 243.478 252.323 243.458C255.217 243.445 258.112 243.42 261.007 243.394C267.299 243.359 271.693 243.334 274.948 243.429C284.583 243.712 292.89 251.214 292.931 260.854C292.94 262.102 292.95 263.351 292.96 264.637C292.96 265.994 292.959 267.35 292.957 268.706C292.961 270.11 292.97 272.918 292.97 272.918C292.977 275.859 292.977 278.8 292.972 281.741C292.966 285.486 293.006 292.974 293.006 292.974C293.006 292.974 293.022 298.775 293.019 301.676C293.019 303.055 293.024 304.434 293.035 305.813C293.128 318.5 292.318 327.676 283.973 336.312C269.145 350.215 248.506 351.679 229.152 351.745C226.529 351.769 223.906 351.793 221.283 351.818C217.18 351.854 213.076 351.884 208.973 351.896C204.991 351.908 201.009 351.951 197.027 351.995C195.196 351.993 195.196 351.993 193.327 351.99C192.364 352.003 191.444 352.027 190.558 352.068C180.111 352.55 170.542 360.643 170.525 371.101C170.521 372.005 170.517 372.909 170.513 373.84C170.513 374.825 170.514 375.809 170.514 376.823C170.511 377.866 170.507 378.909 170.504 379.983C170.497 382.249 170.491 384.515 170.488 386.782C170.48 390.377 170.465 393.972 170.446 397.568C170.394 407.791 170.346 418.015 170.33 428.239C170.32 434.494 170.291 440.749 170.249 447.004C170.237 449.38 170.232 451.755 170.234 454.131C170.255 484.343 170.255 484.343 161.656 493.07C152.507 500.222 142.338 502.712 130.929 502.731C130.179 502.736 129.428 502.741 128.655 502.746C126.185 502.76 123.716 502.767 121.246 502.773C120.396 502.776 119.546 502.778 118.671 502.781C114.169 502.796 109.667 502.806 105.165 502.81C100.548 502.815 95.9312 502.839 91.314 502.868C87.7355 502.887 84.157 502.892 80.5784 502.893C78.8782 502.896 77.178 502.904 75.4778 502.917C65.7128 502.988 54.9927 503.041 45.798 499.317C39.9666 496.956 35.4005 492.231 32.6562 486.57C32.1961 485.649 32.1961 485.649 31.7266 484.71C29.1508 479.166 28.5303 473.809 28.536 467.758C28.5339 466.043 28.5339 466.043 28.5318 464.292C28.5354 463.046 28.539 461.799 28.5427 460.515C28.543 459.169 28.5428 457.824 28.5423 456.478C28.542 452.787 28.5479 449.095 28.5548 445.404C28.5612 441.42 28.5618 437.436 28.563 433.452C28.5659 426.549 28.5723 419.646 28.5811 412.743C28.5936 402.749 28.5997 392.755 28.604 382.762C28.6111 366.53 28.6219 350.298 28.6357 334.067C28.6366 333.095 28.6374 332.124 28.6382 331.123C28.645 323.245 28.6519 315.367 28.6589 307.488C28.6649 300.61 28.6709 293.733 28.6768 286.855C28.6776 285.886 28.6784 284.918 28.6793 283.92C28.693 267.756 28.7027 251.592 28.7097 235.428C28.7141 225.464 28.7222 215.5 28.7348 205.536C28.7433 198.703 28.7481 191.87 28.7502 185.037C28.7516 181.098 28.7546 177.16 28.762 173.221C28.7688 169.609 28.7709 165.996 28.7694 162.384C28.7698 160.472 28.7751 158.561 28.7807 156.649C29.2962 145.755 29.4173 143.197 27.296 136.843C25.706 132.08 22.4394 127.981 17.9688 125.695C7.59949 120.073 4.50076 118.393 2.70475 115.096C0.825466 111.647 0.278629 107.621 0.15625 103.695C0.0525201 101.708 0.115126 99.6801 0.864713 97.8376C2.43735 93.972 5.32862 91.4429 9.146 88.9319C12.2551 87.1603 15.407 85.5099 18.5938 83.8821C19.81 83.2468 21.0257 82.6103 22.2407 81.9727C26.3674 79.8151 30.5112 77.6916 34.6562 75.5696C36.2473 74.7533 37.8383 73.9369 39.4292 73.1204C46.1663 69.6642 52.9053 66.212 59.6489 62.7686C68.9825 57.9985 78.2589 53.1527 87.4338 48.0823C108.756 36.3113 130.396 25.071 152.045 13.9168C153.721 13.052 155.396 12.1841 157.068 11.3123C181.23 -1.28387 202.814 -4.31689 227.984 7.10868Z"/>
</mask>
<path d="M227.984 7.10868C228.755 7.45505 229.525 7.80141 230.319 8.15827C239.395 12.289 248.244 16.8558 257.094 21.4446C258.73 22.2875 260.366 23.13 262.002 23.972C269.29 27.7276 276.561 31.5133 283.807 35.3479C294.096 40.7906 304.478 46.025 314.906 51.1946C318.121 52.7884 321.335 54.3843 324.547 55.9837C325.714 56.5646 325.714 56.5646 326.904 57.1572C331.799 59.6071 336.639 62.144 341.453 64.7493C348.386 68.4942 355.48 71.8149 362.656 75.0696C373.567 80.0837 380.697 83.3602 385.544 85.8771C396.537 91.586 402.183 106.643 394.309 116.206C389.132 121.454 382.753 123.982 376.004 126.641C367.81 129.975 363.65 138.934 364.53 147.736C365.048 152.908 366.367 158.097 367.434 163.04C367.949 165.428 368.449 167.819 368.946 170.211C370.183 176.149 371.441 182.082 372.703 188.015C373.772 193.042 374.83 198.071 375.874 203.103C376.362 205.437 376.865 207.766 377.369 210.096C378.824 216.988 379.695 221.113 380.13 224.119C381.212 231.6 377.262 239.222 370.075 241.565C367.85 242.29 365.489 242.725 363.153 242.858C359.807 243.049 356.476 243.016 353.094 242.945C351.343 242.943 351.343 242.943 349.557 242.941C349.383 242.939 349.212 242.937 349.042 242.936C334.855 242.791 325.679 231.302 329.843 217.739C330.701 214.397 331.09 211.213 331.438 207.781C332.755 196.175 335.369 184.798 337.781 173.382C338.484 170.047 339.186 166.711 339.881 163.374C340.31 161.314 340.744 159.254 341.183 157.197C341.377 156.268 341.57 155.339 341.77 154.381C341.942 153.57 342.113 152.759 342.29 151.923C342.836 148.417 339.127 146.043 335.854 147.415C335.184 147.695 334.514 147.976 333.844 148.257C332.97 148.623 332.095 148.989 331.195 149.366C326.694 151.257 322.245 153.205 317.844 155.32C305.603 160.963 293.272 162.719 279.961 162.711C278.398 162.717 278.398 162.717 276.804 162.722C274.554 162.729 272.304 162.735 270.054 162.738C266.489 162.745 262.924 162.761 259.359 162.78C249.227 162.832 239.095 162.88 228.963 162.896C222.755 162.906 216.547 162.935 210.339 162.977C207.979 162.989 205.619 162.994 203.259 162.992C199.956 162.99 196.654 163.012 193.352 163.04C191.899 163.03 191.899 163.03 190.417 163.02C186.107 163.079 182.374 163.605 178.945 165.149C174.326 167.229 171.285 171.849 171.192 176.914C171.166 177.982 171.14 179.051 171.113 180.152C171.1 181.303 171.087 182.454 171.074 183.64C171.052 184.831 171.029 186.023 171.005 187.25C170.961 189.774 170.923 192.297 170.893 194.821C170.844 198.659 170.769 202.497 170.689 206.335C170.649 208.791 170.611 211.247 170.574 213.702C170.551 214.841 170.529 215.98 170.505 217.154C170.49 218.036 170.476 218.852 170.465 219.612C170.27 233.129 181.15 243.94 194.667 243.765C195.53 243.762 196.393 243.759 197.282 243.756C199.143 243.749 201.004 243.736 202.864 243.72C205.816 243.694 208.768 243.681 211.721 243.672C219.052 243.645 226.384 243.597 233.715 243.549C239.918 243.509 246.12 243.478 252.323 243.458C255.217 243.445 258.112 243.42 261.007 243.394C267.299 243.359 271.693 243.334 274.948 243.429C284.583 243.712 292.89 251.214 292.931 260.854C292.94 262.102 292.95 263.351 292.96 264.637C292.96 265.994 292.959 267.35 292.957 268.706C292.961 270.11 292.97 272.918 292.97 272.918C292.977 275.859 292.977 278.8 292.972 281.741C292.966 285.486 293.006 292.974 293.006 292.974C293.006 292.974 293.022 298.775 293.019 301.676C293.019 303.055 293.024 304.434 293.035 305.813C293.128 318.5 292.318 327.676 283.973 336.312C269.145 350.215 248.506 351.679 229.152 351.745C226.529 351.769 223.906 351.793 221.283 351.818C217.18 351.854 213.076 351.884 208.973 351.896C204.991 351.908 201.009 351.951 197.027 351.995C195.196 351.993 195.196 351.993 193.327 351.99C192.364 352.003 191.444 352.027 190.558 352.068C180.111 352.55 170.542 360.643 170.525 371.101C170.521 372.005 170.517 372.909 170.513 373.84C170.513 374.825 170.514 375.809 170.514 376.823C170.511 377.866 170.507 378.909 170.504 379.983C170.497 382.249 170.491 384.515 170.488 386.782C170.48 390.377 170.465 393.972 170.446 397.568C170.394 407.791 170.346 418.015 170.33 428.239C170.32 434.494 170.291 440.749 170.249 447.004C170.237 449.38 170.232 451.755 170.234 454.131C170.255 484.343 170.255 484.343 161.656 493.07C152.507 500.222 142.338 502.712 130.929 502.731C130.179 502.736 129.428 502.741 128.655 502.746C126.185 502.76 123.716 502.767 121.246 502.773C120.396 502.776 119.546 502.778 118.671 502.781C114.169 502.796 109.667 502.806 105.165 502.81C100.548 502.815 95.9312 502.839 91.314 502.868C87.7355 502.887 84.157 502.892 80.5784 502.893C78.8782 502.896 77.178 502.904 75.4778 502.917C65.7128 502.988 54.9927 503.041 45.798 499.317C39.9666 496.956 35.4005 492.231 32.6562 486.57C32.1961 485.649 32.1961 485.649 31.7266 484.71C29.1508 479.166 28.5303 473.809 28.536 467.758C28.5339 466.043 28.5339 466.043 28.5318 464.292C28.5354 463.046 28.539 461.799 28.5427 460.515C28.543 459.169 28.5428 457.824 28.5423 456.478C28.542 452.787 28.5479 449.095 28.5548 445.404C28.5612 441.42 28.5618 437.436 28.563 433.452C28.5659 426.549 28.5723 419.646 28.5811 412.743C28.5936 402.749 28.5997 392.755 28.604 382.762C28.6111 366.53 28.6219 350.298 28.6357 334.067C28.6366 333.095 28.6374 332.124 28.6382 331.123C28.645 323.245 28.6519 315.367 28.6589 307.488C28.6649 300.61 28.6709 293.733 28.6768 286.855C28.6776 285.886 28.6784 284.918 28.6793 283.92C28.693 267.756 28.7027 251.592 28.7097 235.428C28.7141 225.464 28.7222 215.5 28.7348 205.536C28.7433 198.703 28.7481 191.87 28.7502 185.037C28.7516 181.098 28.7546 177.16 28.762 173.221C28.7688 169.609 28.7709 165.996 28.7694 162.384C28.7698 160.472 28.7751 158.561 28.7807 156.649C29.2962 145.755 29.4173 143.197 27.296 136.843C25.706 132.08 22.4394 127.981 17.9688 125.695C7.59949 120.073 4.50076 118.393 2.70475 115.096C0.825466 111.647 0.278629 107.621 0.15625 103.695C0.0525201 101.708 0.115126 99.6801 0.864713 97.8376C2.43735 93.972 5.32862 91.4429 9.146 88.9319C12.2551 87.1603 15.407 85.5099 18.5938 83.8821C19.81 83.2468 21.0257 82.6103 22.2407 81.9727C26.3674 79.8151 30.5112 77.6916 34.6562 75.5696C36.2473 74.7533 37.8383 73.9369 39.4292 73.1204C46.1663 69.6642 52.9053 66.212 59.6489 62.7686C68.9825 57.9985 78.2589 53.1527 87.4338 48.0823C108.756 36.3113 130.396 25.071 152.045 13.9168C153.721 13.052 155.396 12.1841 157.068 11.3123C181.23 -1.28387 202.814 -4.31689 227.984 7.10868Z" fill="#2962FF"/>
<path d="M228.189 6.65266C228.053 6.95668 227.916 7.26069 227.779 7.56471C228.558 7.91399 229.336 8.26327 230.114 8.61256C239.171 12.7263 248.026 17.2877 256.874 21.8675C258.512 22.7099 260.149 23.5512 261.786 24.3921C269.074 28.1416 276.347 31.9219 283.594 35.7505C293.888 41.187 304.285 46.4203 314.714 51.5822C315.167 51.8062 315.619 52.0302 316.072 52.2543C318.835 53.6225 321.596 54.9923 324.357 56.3648C325.145 56.7564 325.927 57.1453 326.715 57.5368C331.603 59.9792 336.446 62.5145 341.256 65.1134C348.191 68.8547 355.327 72.19 362.491 75.4339C370.145 78.9712 377.874 82.3979 385.366 86.2194C395.712 91.4145 401.926 106.434 394.026 115.973L394.048 115.949C389.129 121.012 382.427 123.744 375.873 126.31C367.516 129.613 363.229 139.199 364.188 147.77C364.715 152.98 366.008 158.045 367.105 163.111C367.621 165.497 368.122 167.888 368.62 170.279C369.859 176.217 371.12 182.15 372.384 188.082C373.455 193.108 374.515 198.137 375.561 203.168C376.05 205.503 376.555 207.834 377.06 210.163C378.027 214.827 379.1 219.479 379.822 224.163C380.952 231.213 376.953 239.115 369.981 241.276C367.769 241.997 365.46 242.423 363.136 242.557C359.8 242.749 356.451 242.717 353.1 242.647C351.912 242.646 350.739 242.645 349.557 242.644C349.388 242.643 349.217 242.641 349.045 242.639C336.365 243.43 325.425 229.934 330.115 217.822L330.119 217.809C330.967 214.526 331.383 211.158 331.718 207.809C333.028 196.234 335.639 184.85 338.049 173.439C338.751 170.103 339.452 166.766 340.146 163.429C340.575 161.369 341.008 159.31 341.446 157.253C341.642 156.313 341.838 155.375 342.033 154.436C342.206 153.618 342.379 152.798 342.553 151.979L342.555 151.965C343.288 148.333 338.833 145.658 335.751 147.169C335.081 147.45 334.411 147.731 333.741 148.012C332.858 148.381 331.975 148.751 331.092 149.121C326.597 151.011 322.128 152.969 317.73 155.083C305.987 160.586 292.88 162.518 279.961 162.455C278.905 162.459 277.858 162.462 276.803 162.466C274.553 162.473 272.303 162.479 270.053 162.483C266.488 162.491 262.923 162.507 259.358 162.526C249.226 162.579 239.094 162.628 228.963 162.644C222.754 162.655 216.546 162.685 210.338 162.727C207.978 162.74 205.619 162.745 203.259 162.743C199.955 162.74 196.652 162.763 193.349 162.791C192.373 162.784 191.399 162.777 190.418 162.771C186.494 162.822 182.473 163.275 178.843 164.922C174.201 166.969 170.996 171.838 170.944 176.909C170.917 177.987 170.891 179.066 170.864 180.146C170.853 181.154 170.842 182.159 170.831 183.164C170.829 183.322 170.828 183.479 170.826 183.637C170.803 184.839 170.78 186.042 170.757 187.246C170.712 189.77 170.674 192.294 170.643 194.818C170.593 198.655 170.516 202.492 170.434 206.33C170.393 208.787 170.353 211.243 170.314 213.699C170.291 214.848 170.267 215.998 170.243 217.148C170.228 217.969 170.214 218.788 170.201 219.608C169.623 232.717 181.559 244.601 194.671 244.072C195.54 244.071 196.412 244.069 197.283 244.067C199.145 244.062 201.006 244.053 202.867 244.039C205.818 244.018 208.77 244.009 211.722 244.004C219.054 243.988 226.386 243.952 233.718 243.915C239.92 243.886 246.122 243.864 252.324 243.854C255.22 243.846 258.115 243.825 261.01 243.804C265.657 243.793 270.307 243.734 274.935 243.86C283.977 243.962 292.612 251.654 292.465 260.855C292.473 262.118 292.481 263.38 292.489 264.641C292.488 265.993 292.485 267.35 292.482 268.706C292.485 270.11 292.488 271.518 292.491 272.919C292.496 275.859 292.493 278.8 292.486 281.74C292.48 285.485 292.496 289.237 292.512 292.976C292.518 295.87 292.524 298.779 292.521 301.675C292.521 303.056 292.526 304.436 292.536 305.816C292.556 308.918 292.534 312.02 292.303 315.098C292.279 315.405 292.752 315.75 292.724 316.063C292.195 323.539 289.355 330.985 283.973 336.312C269.459 350.082 248.267 351.732 229.152 351.743C226.529 351.766 223.906 351.789 221.283 351.814C217.18 351.85 213.076 351.88 208.973 351.891C204.991 351.903 201.009 351.946 197.027 351.99C195.791 351.988 194.563 351.986 193.327 351.984C192.404 351.997 191.48 352.019 190.558 352.062C180.497 352.404 170.439 360.609 170.515 371.101C170.511 372.014 170.507 372.927 170.503 373.84C170.503 374.835 170.503 375.829 170.504 376.823C170.5 377.877 170.496 378.93 170.493 379.983C170.485 382.249 170.479 384.515 170.476 386.781C170.468 390.377 170.452 393.972 170.433 397.568C170.379 407.791 170.329 418.015 170.311 428.239C170.3 434.494 170.27 440.749 170.227 447.004C170.214 449.38 170.208 451.755 170.21 454.131C169.218 467.35 174.039 483.983 161.633 493.046C153.043 499.951 141.829 502.794 130.929 502.689C130.171 502.694 129.413 502.699 128.655 502.704C126.185 502.718 123.716 502.724 121.246 502.729C120.388 502.731 119.529 502.734 118.671 502.736C114.169 502.75 109.667 502.758 105.165 502.761C100.548 502.765 95.9308 502.788 91.3137 502.815C87.7354 502.833 84.1569 502.837 80.5784 502.837C78.878 502.839 77.1777 502.847 75.4774 502.86C65.5039 502.914 55.2001 503.007 45.8235 499.255C40.0248 496.918 35.4188 492.129 32.7232 486.537C32.4124 485.915 32.1041 485.298 31.7938 484.677C29.297 479.426 28.5747 473.534 28.6176 467.758C28.6166 466.6 28.6157 465.45 28.6148 464.292C28.6189 463.033 28.623 461.774 28.6271 460.515C28.6279 459.169 28.6282 457.824 28.6282 456.478C28.6293 452.787 28.6367 449.095 28.6451 445.404C28.6531 441.42 28.6553 437.436 28.6581 433.452C28.6638 426.549 28.6732 419.646 28.6848 412.743C28.7017 402.749 28.7121 392.756 28.721 382.762C28.7354 366.53 28.7539 350.298 28.7758 334.067C28.7771 333.086 28.7785 332.104 28.7798 331.123C28.7905 323.245 28.8014 315.367 28.8124 307.488C28.822 300.611 28.8317 293.733 28.8412 286.855C28.8426 285.877 28.8439 284.899 28.8453 283.92C28.8677 267.756 28.8866 251.592 28.9029 235.429C28.9132 225.465 28.9272 215.501 28.9459 205.537C28.9585 198.703 28.9676 191.87 28.974 185.037C28.9778 181.099 28.9833 177.16 28.9932 173.222C29.0023 169.609 29.0067 165.996 29.0075 162.384C29.0092 160.473 29.0158 158.561 29.0226 156.65L29.0223 156.661C29.2777 150.044 30.0377 143.116 27.538 136.762C25.965 131.996 22.6044 127.756 18.0895 125.459C12.81 122.27 6.25958 120.199 2.94905 114.963C1.09343 111.548 0.562106 107.574 0.442612 103.686C0.341008 101.725 0.405907 99.7297 1.13402 97.9471C2.62874 94.1364 5.89814 91.399 9.31066 89.1823L9.29434 89.1923C12.3924 87.4297 15.554 85.777 18.7336 84.1559C19.953 83.5202 21.1693 82.8845 22.385 82.2476C26.5112 80.0942 30.6561 77.9741 34.8025 75.8553C36.3944 75.04 37.986 74.2248 39.5776 73.4095C46.3171 69.9585 53.0586 66.5115 59.8046 63.0735C69.1387 58.3123 78.4329 53.4666 87.6114 48.4036C103.288 39.7659 119.125 31.421 135.018 23.1832C140.753 20.2104 146.496 17.2514 152.242 14.2974C153.919 13.4337 155.594 12.567 157.268 11.6963C178.635 -0.29854 205.502 -3.6315 227.778 7.56397C227.915 7.26045 228.053 6.95692 228.191 6.65339C205.669 -4.6422 178.292 -1.18119 156.868 10.9283C155.197 11.8012 153.524 12.6703 151.849 13.5363C146.108 16.5003 140.37 19.4696 134.638 22.4528C118.756 30.7193 102.927 39.0935 87.2564 47.7609C78.0959 52.8331 68.8161 57.69 59.4931 62.4638C52.7521 65.9125 46.0154 69.37 39.2809 72.8313C37.6905 73.649 36.1002 74.4666 34.5098 75.2841C30.3666 77.4091 26.2233 79.5362 22.0969 81.6975C20.882 82.3362 19.667 82.9735 18.4514 83.6096C15.2731 85.2359 12.1054 86.8976 8.99765 88.6716L8.98133 88.6816C5.54701 90.9186 2.14767 93.7539 0.59541 97.728C-0.181518 99.6428 -0.234225 101.724 -0.129861 103.71C-0.00254779 107.631 0.534595 111.693 2.46046 115.229C6.05341 120.802 12.5379 122.708 17.8423 125.928C22.2297 128.152 25.5122 132.273 27.054 136.924C29.5308 143.196 28.7864 149.99 28.539 156.638L28.5388 156.649C28.5344 158.56 28.5303 160.472 28.5312 162.384C28.535 165.996 28.5353 169.608 28.5308 173.221C28.5258 177.159 28.5254 181.098 28.5265 185.037C28.5287 191.87 28.528 198.703 28.5237 205.536C28.5172 215.5 28.5151 225.464 28.5164 235.428C28.5189 251.592 28.5182 267.756 28.5132 283.92C28.5129 284.898 28.5126 285.876 28.5123 286.855C28.5101 293.732 28.5078 300.61 28.5053 307.488C28.5024 315.366 28.4995 323.245 28.4967 331.123C28.4964 332.104 28.496 333.085 28.4957 334.067C28.4899 350.298 28.4868 366.53 28.4871 382.762C28.4873 392.755 28.4856 402.749 28.4773 412.743C28.4715 419.646 28.468 426.549 28.4679 433.452C28.4683 437.436 28.4693 441.42 28.4646 445.403C28.4591 449.095 28.4546 452.787 28.4563 456.478C28.4574 457.824 28.4581 459.169 28.4584 460.515C28.4552 461.774 28.4521 463.033 28.4489 464.292C28.4507 465.45 28.4526 466.6 28.4544 467.758C28.4154 473.543 29.1448 479.467 31.6584 484.742C31.9702 485.365 32.2789 485.982 32.5897 486.603C35.3027 492.221 39.9364 497.033 45.7726 499.38C55.1873 503.139 65.5042 503.035 75.4782 502.975C77.1783 502.961 78.8784 502.953 80.5785 502.949C84.157 502.947 87.7357 502.941 91.3143 502.921C95.9314 502.891 100.548 502.865 105.165 502.859C109.667 502.853 114.169 502.842 118.671 502.826C119.529 502.823 120.388 502.82 121.246 502.817C123.716 502.811 126.186 502.803 128.655 502.788C129.414 502.783 130.172 502.777 130.93 502.772C141.84 502.871 153.075 500.018 161.677 493.096C174.105 483.999 169.27 467.344 170.258 454.131C170.255 451.755 170.26 449.38 170.271 447.004C170.312 440.749 170.34 434.494 170.349 428.239C170.363 418.015 170.409 407.791 170.46 397.568C170.478 393.972 170.493 390.377 170.5 386.782C170.503 384.516 170.508 382.249 170.515 379.983C170.518 378.93 170.522 377.877 170.525 376.823C170.524 375.829 170.524 374.835 170.523 373.84C170.527 372.927 170.531 372.014 170.535 371.101C170.455 360.622 180.503 352.418 190.558 352.074C191.481 352.032 192.404 352.009 193.327 351.996C194.563 351.997 195.791 351.999 197.027 352.001C201.009 351.956 204.991 351.912 208.973 351.9C213.076 351.888 217.18 351.858 221.283 351.821C223.906 351.796 226.529 351.772 229.152 351.748C248.267 351.735 269.46 350.083 283.973 336.312C289.356 330.985 292.195 323.539 292.724 316.063C292.752 315.752 293.276 315.487 293.3 315.173C293.535 312.048 293.555 308.922 293.533 305.809C293.523 304.431 293.517 303.053 293.516 301.676C293.517 298.776 293.509 295.869 293.5 292.972C293.48 289.234 293.459 285.48 293.458 281.742C293.461 278.8 293.459 275.858 293.449 272.916C293.443 271.515 293.437 270.107 293.432 268.705C293.432 267.35 293.432 265.994 293.43 264.638C293.419 263.373 293.408 262.111 293.397 260.85C293.516 251.093 284.406 243.079 274.96 242.999C270.298 242.887 265.654 242.96 261.004 242.985C258.108 243.015 255.214 243.044 252.321 243.062C246.118 243.092 239.916 243.133 233.713 243.182C226.382 243.242 219.05 243.302 211.72 243.339C208.767 243.354 205.814 243.371 202.861 243.401C201.001 243.42 199.141 243.435 197.281 243.445C196.41 243.449 195.538 243.453 194.666 243.457C181.88 244.009 170.188 232.444 170.73 219.616C170.741 218.797 170.754 217.978 170.767 217.158C170.79 216.008 170.812 214.858 170.834 213.708C170.869 211.251 170.906 208.795 170.944 206.339C171.021 202.502 171.095 198.663 171.143 194.824C171.173 192.301 171.21 189.778 171.254 187.255C171.277 186.052 171.3 184.848 171.322 183.645C171.324 183.485 171.326 183.327 171.328 183.169C171.339 182.164 171.35 181.16 171.361 180.155C171.387 179.079 171.414 177.999 171.44 176.92C171.49 172.038 174.58 167.343 179.047 165.376C182.585 163.769 186.531 163.319 190.42 163.268C191.395 163.275 192.369 163.282 193.35 163.289C196.656 163.261 199.957 163.239 203.259 163.242C205.619 163.244 207.98 163.239 210.341 163.227C216.549 163.185 222.756 163.156 228.963 163.147C239.096 163.132 249.228 163.085 259.36 163.034C262.925 163.016 266.49 163 270.054 162.994C272.304 162.99 274.555 162.985 276.805 162.978C277.86 162.975 278.907 162.971 279.962 162.968C292.922 163.035 306.122 161.098 317.954 155.558C322.345 153.449 326.807 151.497 331.297 149.61C332.18 149.241 333.063 148.872 333.946 148.502C334.617 148.222 335.287 147.941 335.957 147.66C338.747 146.307 342.682 148.704 342.025 151.882L342.028 151.868C341.854 152.687 341.681 153.506 341.507 154.326C341.311 155.265 341.115 156.203 340.919 157.142C340.48 159.199 340.045 161.258 339.616 163.318C338.92 166.655 338.218 169.991 337.514 173.326C335.101 184.729 332.479 196.129 331.157 207.749C330.82 211.095 330.406 214.429 329.567 217.668L329.57 217.655C324.719 230.057 336.07 244.076 349.039 243.232C349.211 243.234 349.382 243.235 349.554 243.237C350.738 243.239 351.912 243.241 353.093 243.242C356.442 243.314 359.807 243.349 363.17 243.158C365.546 243.022 367.904 242.589 370.169 241.853C377.461 239.59 381.603 231.378 380.438 224.074C379.712 219.339 378.644 214.7 377.679 210.031C377.176 207.699 376.673 205.37 376.186 203.038C375.145 198.005 374.088 192.975 373.022 187.947C371.762 182.014 370.507 176.081 369.273 170.143C368.777 167.751 368.278 165.358 367.763 162.969C366.666 157.885 365.387 152.843 364.873 147.701C363.948 139.366 368.133 130.116 376.138 126.971C382.684 124.413 389.514 121.654 394.57 116.464L394.592 116.439C402.862 106.386 396.403 90.9327 385.721 85.5347C378.192 81.6843 370.477 78.2545 362.823 74.7061C355.667 71.4557 348.552 68.1196 341.65 64.385C336.837 61.7769 331.989 59.2315 327.093 56.778C326.306 56.385 325.524 55.9951 324.737 55.6026C321.977 54.2264 319.217 52.8529 316.455 51.481C316.003 51.2563 315.551 51.0317 315.098 50.8071C304.679 45.6337 294.296 40.3902 284.02 34.9453C276.775 31.105 269.504 27.3132 262.218 23.552C260.583 22.7087 258.947 21.8652 257.312 21.0212C248.47 16.4288 239.608 11.8467 230.525 7.70493C229.745 7.35354 228.967 7.0031 228.189 6.65266ZM227.779 7.56471L228.189 6.65266L227.778 7.56397L227.779 7.56471Z" fill="black" mask="url(#path-1-inside-1_8_43)"/>
</svg>
