<svg width="581" height="581" viewBox="0 0 581 581" fill="none" xmlns="http://www.w3.org/2000/svg">
<path d="M290.5 0C450.939 0 581 130.061 581 290.5C581 450.939 450.939 581 290.5 581C130.061 581 0 450.939 0 290.5C0 130.061 130.061 0 290.5 0ZM334.898 47.8125C310.29 36.8628 289.188 39.7701 265.564 51.8418C263.93 52.6773 262.293 53.5092 260.654 54.3379C239.488 65.0278 218.33 75.8 197.483 87.0811C188.513 91.9403 179.444 96.5838 170.318 101.155C163.725 104.455 157.137 107.764 150.55 111.076C148.994 111.859 147.438 112.642 145.883 113.424C141.83 115.457 137.779 117.493 133.744 119.561C132.556 120.172 131.368 120.782 130.179 121.391C127.063 122.951 123.982 124.532 120.942 126.229C116.36 129.184 113.142 132.166 112 137.511C112.052 138.486 112.102 139.432 112.152 140.378C112.244 143.261 112.244 143.261 112.642 146.009C115.109 153.778 115.11 153.778 129.568 161.462C131.864 162.613 133.928 163.792 136.106 165.176C140.798 177.484 140.797 177.484 140.139 191.128C140.133 192.96 140.128 194.792 140.128 196.624C140.129 200.086 140.127 203.549 140.12 207.011C140.113 210.785 140.111 214.56 140.109 218.335C140.107 224.883 140.102 231.432 140.094 237.98C140.081 247.53 140.074 257.079 140.069 266.628C140.063 282.119 140.052 297.61 140.039 313.102C140.038 314.058 140.038 314.986 140.037 315.914C140.031 322.506 140.025 329.097 140.02 335.688C140.013 343.239 140.006 350.79 139.999 358.34C139.998 359.299 139.998 360.229 139.997 361.16C139.984 376.716 139.973 392.272 139.966 407.828C139.962 417.406 139.956 426.984 139.943 436.562C139.935 443.177 139.929 449.793 139.926 456.409C139.925 460.227 139.924 464.045 139.918 467.862C139.911 471.4 139.905 474.939 139.905 478.477C139.906 479.766 139.907 481.055 139.906 482.345C139.903 483.576 139.899 484.77 139.896 485.965C139.898 487.642 139.897 487.643 139.899 489.286C139.894 495.086 140.5 500.22 143.019 505.533C143.478 506.433 143.478 506.433 143.928 507.315C145.313 510.116 146.773 512.592 148.816 514.982C159.084 523.131 173.246 523.071 185.794 522.982C187.456 522.97 189.119 522.962 190.781 522.959C194.28 522.958 197.779 522.953 201.277 522.935C205.791 522.907 210.305 522.884 214.819 522.879C219.221 522.875 223.622 522.866 228.023 522.852C228.88 522.849 229.711 522.846 230.542 522.844C232.956 522.838 235.371 522.832 237.785 522.818C238.541 522.813 239.275 522.808 240.009 522.804C251.163 522.786 261.106 520.4 270.051 513.545C278.458 505.181 278.458 505.181 278.437 476.227C278.434 473.95 278.439 471.673 278.451 469.396C278.492 463.402 278.521 457.407 278.531 451.412C278.546 441.614 278.593 431.816 278.645 422.019C278.663 418.573 278.678 415.126 278.685 411.681C278.688 409.509 278.693 407.338 278.7 405.166C278.704 404.136 278.708 403.136 278.711 402.137C278.71 401.165 278.71 400.222 278.709 399.278C278.713 398.386 278.717 397.52 278.721 396.653C278.73 390.905 279.97 387.272 283.738 382.727C289.534 379.041 294.162 378.433 301.015 378.337C302.842 378.34 302.842 378.34 304.633 378.343C308.526 378.3 312.418 378.259 316.312 378.247C320.324 378.236 324.336 378.208 328.348 378.173C330.912 378.149 333.477 378.126 336.041 378.104C354.963 378.04 375.142 376.637 389.639 363.312C397.798 355.036 398.589 346.241 398.498 334.082C398.488 332.761 398.483 331.439 398.482 330.118C398.485 327.35 398.471 321.827 398.471 321.778C398.471 321.778 398.431 314.601 398.437 311.013C398.442 308.194 398.442 305.375 398.435 302.557C398.434 302.526 398.426 299.858 398.422 298.521C398.423 297.221 398.425 295.921 398.425 294.621C398.415 293.388 398.406 292.192 398.396 290.995C398.374 285.786 397.886 282.017 394.218 278.084C387.574 274.149 387.573 274.15 367.185 274.263C364.354 274.287 361.525 274.311 358.694 274.323C352.63 274.343 346.566 274.372 340.502 274.41C333.334 274.456 326.166 274.503 318.998 274.528C316.112 274.538 313.225 274.55 310.339 274.574C308.52 274.59 306.701 274.602 304.882 274.609C304.013 274.612 303.169 274.615 302.325 274.618C295.392 274.706 288.773 274.613 282.883 270.597C278.505 260.44 278.505 260.44 278.702 249.114C278.725 247.99 278.747 246.898 278.77 245.807C278.805 243.453 278.843 241.1 278.882 238.746C278.959 235.068 279.034 231.39 279.081 227.711C279.111 225.292 279.148 222.873 279.191 220.455C279.214 219.279 279.236 218.137 279.258 216.995C279.271 215.859 279.284 214.755 279.296 213.652C279.322 212.597 279.347 211.574 279.373 210.55C279.425 207.767 279.576 205.927 280.833 203.431C285.882 198.619 291.269 197.326 298.169 197.233C299.618 197.243 299.619 197.243 301.039 197.253C304.268 197.226 307.496 197.205 310.725 197.207C313.032 197.209 315.34 197.204 317.647 197.192C323.717 197.152 329.786 197.124 335.855 197.114C345.761 197.099 355.667 197.054 365.573 197.004C369.059 196.986 372.545 196.971 376.03 196.964C378.23 196.96 380.43 196.955 382.63 196.948C384.188 196.943 384.188 196.943 385.716 196.938C398.73 196.945 410.786 195.263 422.754 189.854C427.057 187.828 431.406 185.961 435.807 184.147C436.687 183.786 437.542 183.436 438.396 183.086C441.268 181.906 444.14 180.727 447.013 179.552C447.075 181.96 447.034 184.216 446.655 186.6C446.482 187.4 446.314 188.178 446.146 188.955C445.951 189.872 445.762 190.763 445.572 191.653C445.143 193.625 444.719 195.598 444.3 197.572C443.62 200.771 442.935 203.968 442.247 207.165C439.888 218.106 437.332 229.009 436.044 240.131C435.704 243.42 435.324 246.472 434.485 249.675C432.468 256.117 430.392 263.35 433.287 269.822C437.711 273.668 437.711 273.669 453.76 273.828C455.506 273.83 455.506 273.829 457.218 273.831C461.675 273.923 466.042 273.948 470.478 273.472C475.292 272.182 480.018 270.714 483.188 266.764C484.495 258.802 484.495 258.802 480.951 242.351C480.458 240.118 479.967 237.885 479.489 235.648C478.469 230.826 477.434 226.006 476.39 221.188C475.156 215.503 473.926 209.817 472.717 204.126C472.231 201.834 471.742 199.542 471.238 197.253C469.297 188.433 466.498 178.797 469.5 169.968C472.196 165.705 475.043 164.194 479.616 162.37C486.215 159.821 492.452 157.398 497.513 152.369C501.985 147.045 502.401 142.151 501.764 135.467C497.349 126.811 497.348 126.811 466.566 112.944C459.551 109.825 452.615 106.643 445.837 103.054C441.13 100.557 436.398 98.1262 431.611 95.7783C430.448 95.2104 430.448 95.2099 429.308 94.6533C426.167 93.1205 423.025 91.591 419.882 90.0635C409.686 85.1091 399.536 80.0921 389.477 74.876C382.392 71.201 375.282 67.5729 368.157 63.9736C366.558 63.1668 364.958 62.3594 363.359 61.5518C354.707 57.1539 346.055 52.7771 337.182 48.8184C336.406 48.4764 335.652 48.1444 334.898 47.8125Z" fill="#2962FF"/>
</svg>
