<svg width="581" height="581" viewBox="0 0 581 581" fill="none" xmlns="http://www.w3.org/2000/svg">
<path d="M290.5 0C450.939 0 581 130.061 581 290.5C581 450.939 450.939 581 290.5 581C130.061 581 0 450.939 0 290.5C0 130.061 130.061 0 290.5 0ZM329.607 87.8936C308.343 78.4204 290.108 80.9352 269.695 91.3789C268.283 92.1018 266.868 92.8221 265.452 93.5391C247.162 102.787 228.88 112.107 210.866 121.866C203.115 126.07 195.278 130.088 187.393 134.043C181.695 136.898 176.002 139.76 170.311 142.626C168.967 143.303 167.622 143.98 166.278 144.657C162.777 146.417 159.276 148.177 155.79 149.966C154.764 150.494 153.736 151.023 152.709 151.55C150.017 152.899 147.353 154.267 144.727 155.736C140.767 158.292 137.987 160.871 137 165.495C137.045 166.339 137.088 167.158 137.132 167.977C137.211 170.47 137.211 170.47 137.555 172.848C139.687 179.569 139.687 179.57 152.181 186.218C154.164 187.213 155.948 188.234 157.83 189.431C161.884 200.079 161.884 200.079 161.314 211.883C161.31 213.468 161.305 215.053 161.305 216.638C161.306 219.633 161.305 222.628 161.299 225.623C161.293 228.889 161.29 232.154 161.289 235.42C161.287 241.085 161.284 246.751 161.276 252.417C161.266 260.678 161.259 268.94 161.255 277.201C161.249 290.603 161.241 304.005 161.229 317.407C161.229 318.234 161.227 319.038 161.227 319.841C161.222 325.543 161.217 331.246 161.212 336.948C161.206 343.48 161.2 350.013 161.194 356.545C161.194 357.375 161.193 358.18 161.192 358.985C161.181 372.444 161.171 385.902 161.165 399.36C161.161 407.646 161.157 415.932 161.146 424.218C161.139 429.941 161.133 435.665 161.131 441.389C161.13 444.692 161.129 447.995 161.124 451.298C161.118 454.359 161.113 457.42 161.113 460.48C161.114 461.596 161.114 462.712 161.113 463.827C161.11 464.892 161.108 465.926 161.104 466.96C161.106 468.411 161.107 468.411 161.108 469.833C161.104 474.85 161.628 479.292 163.804 483.889C164.2 484.667 164.2 484.668 164.589 485.431C165.786 487.853 167.048 489.995 168.813 492.063C177.686 499.113 189.923 499.061 200.766 498.984C202.202 498.973 203.639 498.967 205.075 498.965C208.098 498.964 211.121 498.959 214.145 498.943C218.045 498.92 221.946 498.9 225.847 498.896C229.65 498.892 233.454 498.884 237.257 498.872C237.996 498.87 238.714 498.868 239.432 498.865C241.518 498.861 243.605 498.855 245.691 498.843C246.345 498.839 246.979 498.834 247.613 498.83C257.251 498.815 265.842 496.75 273.571 490.819C280.836 483.584 280.836 483.584 280.818 458.534C280.816 456.565 280.821 454.595 280.831 452.625C280.866 447.439 280.891 442.253 280.899 437.066C280.913 428.59 280.954 420.112 280.998 411.636C281.014 408.655 281.026 405.673 281.032 402.692C281.035 400.814 281.041 398.935 281.047 397.057C281.05 396.166 281.053 395.301 281.056 394.437C281.055 393.596 281.054 392.779 281.054 391.963C281.057 391.191 281.061 390.441 281.064 389.691C281.073 384.719 282.144 381.576 285.399 377.644C290.408 374.455 294.406 373.929 300.328 373.846C301.907 373.848 301.907 373.848 303.454 373.851C306.818 373.814 310.182 373.778 313.546 373.768C317.013 373.758 320.48 373.733 323.946 373.703C326.162 373.682 328.378 373.663 330.594 373.644C346.944 373.589 364.381 372.374 376.908 360.847C383.958 353.687 384.642 346.078 384.563 335.559C384.555 334.415 384.551 333.272 384.551 332.129C384.553 329.735 384.54 324.959 384.54 324.914C384.54 324.914 384.506 318.705 384.511 315.601C384.515 313.162 384.515 310.724 384.509 308.285C384.509 308.285 384.501 305.957 384.498 304.793C384.499 303.668 384.501 302.544 384.501 301.419C384.493 300.352 384.485 299.317 384.477 298.282C384.457 293.776 384.035 290.515 380.865 287.112C375.124 283.708 375.124 283.708 357.506 283.806C355.06 283.827 352.615 283.848 350.169 283.858C344.929 283.875 339.689 283.902 334.449 283.935C328.255 283.974 322.061 284.014 315.867 284.036C313.373 284.044 310.879 284.055 308.385 284.076C306.813 284.09 305.242 284.099 303.67 284.105C302.919 284.108 302.19 284.111 301.461 284.113C295.47 284.189 289.75 284.11 284.66 280.635C280.878 271.848 280.878 271.848 281.048 262.049C281.068 261.076 281.086 260.132 281.105 259.188C281.137 257.151 281.169 255.115 281.203 253.079C281.27 249.897 281.334 246.715 281.375 243.532C281.401 241.44 281.432 239.347 281.47 237.255C281.489 236.237 281.509 235.249 281.528 234.262C281.539 233.279 281.55 232.324 281.561 231.37C281.583 230.457 281.606 229.571 281.628 228.685C281.673 226.278 281.803 224.686 282.89 222.526C287.253 218.364 291.907 217.245 297.869 217.165C299.121 217.173 299.121 217.173 300.349 217.182C303.139 217.159 305.928 217.14 308.719 217.142C310.713 217.143 312.706 217.139 314.7 217.129C319.945 217.094 325.19 217.07 330.435 217.062C338.994 217.049 347.554 217.009 356.113 216.966C359.125 216.951 362.137 216.938 365.148 216.932C367.049 216.929 368.951 216.924 370.852 216.918C372.198 216.914 372.199 216.914 373.519 216.909C384.764 216.915 395.182 215.46 405.523 210.78C409.242 209.027 413.001 207.412 416.803 205.844C417.563 205.531 418.302 205.228 419.04 204.925C421.521 203.904 424.003 202.884 426.485 201.867C426.539 203.95 426.503 205.903 426.176 207.965C426.026 208.658 425.881 209.331 425.736 210.003C425.568 210.796 425.405 211.567 425.241 212.337C424.87 214.043 424.503 215.75 424.141 217.458C423.553 220.225 422.961 222.991 422.367 225.757C420.329 235.222 418.121 244.655 417.008 254.277C416.714 257.123 416.385 259.763 415.66 262.534C413.917 268.107 412.123 274.365 414.625 279.964C418.448 283.291 418.448 283.292 432.315 283.43C433.824 283.431 433.825 283.431 435.304 283.433C439.155 283.512 442.929 283.534 446.762 283.122C450.922 282.006 455.006 280.736 457.744 277.318C458.874 270.43 458.873 270.43 455.812 256.197C455.386 254.266 454.961 252.334 454.549 250.399C453.667 246.227 452.773 242.057 451.87 237.889C450.804 232.97 449.741 228.05 448.696 223.127C448.276 221.144 447.854 219.162 447.419 217.182C445.741 209.551 443.323 201.215 445.917 193.576C448.246 189.888 450.706 188.58 454.658 187.002C460.36 184.797 465.75 182.701 470.123 178.351C473.987 173.745 474.347 169.51 473.796 163.728C469.981 156.239 469.981 156.239 443.382 144.242C437.319 141.544 431.326 138.791 425.469 135.686C421.402 133.526 417.313 131.422 413.178 129.391C412.172 128.899 412.172 128.899 411.187 128.418C408.473 127.092 405.758 125.769 403.042 124.447C394.232 120.161 385.461 115.82 376.769 111.308C370.647 108.128 364.504 104.99 358.347 101.876C356.964 101.178 355.582 100.479 354.2 99.7803C346.723 95.9756 339.247 92.1895 331.58 88.7646C330.91 88.4688 330.258 88.1807 329.607 87.8936Z" fill="#2962FF"/>
</svg>
